
<mxfile host="app.diagrams.net" modified="2024-05-13T19:15:41.648Z" agent="Mozilla/5.0 (Windows NT 10.0; Win64; x64) AppleWebKit/537.36 (KHTML, like Gecko) Chrome/123.0.0.0 Safari/537.36 OPR/109.0.0.0 (Edition Yx GX)" etag="UEmkZ2e377QMjYBL-Rg8" version="24.4.0" type="github">
  <diagram id="C5RBs43oDa-KdzZeNtuy" name="Page-1">
    <mxGraphModel dx="2322" dy="1277" grid="1" gridSize="10" guides="1" tooltips="1" connect="1" arrows="1" fold="1" page="1" pageScale="1" pageWidth="827" pageHeight="1169" math="0" shadow="0">
      <root>
        <mxCell id="WIyWlLk6GJQsqaUBKTNV-0" />
        <mxCell id="WIyWlLk6GJQsqaUBKTNV-1" parent="WIyWlLk6GJQsqaUBKTNV-0" />
        <mxCell id="VwSYQ-uEitvDgqtaSyAi-0" style="edgeStyle=orthogonalEdgeStyle;rounded=0;orthogonalLoop=1;jettySize=auto;html=1;" edge="1" parent="WIyWlLk6GJQsqaUBKTNV-1" source="WIyWlLk6GJQsqaUBKTNV-3">
          <mxGeometry relative="1" as="geometry">
            <mxPoint x="220" y="165" as="targetPoint" />
          </mxGeometry>
        </mxCell>
        <mxCell id="WIyWlLk6GJQsqaUBKTNV-3" value="&lt;div&gt;def __init__(self, width, height):&lt;/div&gt;&lt;div&gt;self.width = max(0, width)&lt;/div&gt;&lt;div&gt;&lt;span style=&quot;background-color: initial;&quot;&gt;self.height = max(0, height)&lt;/span&gt;&lt;/div&gt;" style="rounded=1;whiteSpace=wrap;html=1;fontSize=12;glass=0;strokeWidth=1;shadow=0;" parent="WIyWlLk6GJQsqaUBKTNV-1" vertex="1">
          <mxGeometry x="130" y="15" width="180" height="70" as="geometry" />
        </mxCell>
        <mxCell id="VwSYQ-uEitvDgqtaSyAi-3" style="edgeStyle=orthogonalEdgeStyle;rounded=0;orthogonalLoop=1;jettySize=auto;html=1;entryX=0.5;entryY=0;entryDx=0;entryDy=0;" edge="1" parent="WIyWlLk6GJQsqaUBKTNV-1" source="VwSYQ-uEitvDgqtaSyAi-1" target="VwSYQ-uEitvDgqtaSyAi-2">
          <mxGeometry relative="1" as="geometry" />
        </mxCell>
        <mxCell id="VwSYQ-uEitvDgqtaSyAi-1" value="&lt;div&gt;def area(self):&lt;/div&gt;&lt;div&gt;return self.width * self.height&lt;/div&gt;" style="rounded=1;whiteSpace=wrap;html=1;fontSize=12;glass=0;strokeWidth=1;shadow=0;" vertex="1" parent="WIyWlLk6GJQsqaUBKTNV-1">
          <mxGeometry x="140" y="145" width="160" height="60" as="geometry" />
        </mxCell>
        <mxCell id="VwSYQ-uEitvDgqtaSyAi-5" style="edgeStyle=orthogonalEdgeStyle;rounded=0;orthogonalLoop=1;jettySize=auto;html=1;entryX=0.5;entryY=0;entryDx=0;entryDy=0;" edge="1" parent="WIyWlLk6GJQsqaUBKTNV-1" source="VwSYQ-uEitvDgqtaSyAi-2" target="VwSYQ-uEitvDgqtaSyAi-4">
          <mxGeometry relative="1" as="geometry" />
        </mxCell>
        <mxCell id="VwSYQ-uEitvDgqtaSyAi-2" value="&lt;div&gt;def perimeter(self):&lt;/div&gt;&lt;div&gt;return 2 * (self.width self.height)&lt;/div&gt;" style="rounded=1;whiteSpace=wrap;html=1;fontSize=12;glass=0;strokeWidth=1;shadow=0;" vertex="1" parent="WIyWlLk6GJQsqaUBKTNV-1">
          <mxGeometry x="145" y="275" width="150" height="60" as="geometry" />
        </mxCell>
        <mxCell id="VwSYQ-uEitvDgqtaSyAi-7" style="edgeStyle=orthogonalEdgeStyle;rounded=0;orthogonalLoop=1;jettySize=auto;html=1;entryX=0.5;entryY=0;entryDx=0;entryDy=0;" edge="1" parent="WIyWlLk6GJQsqaUBKTNV-1" source="VwSYQ-uEitvDgqtaSyAi-4" target="VwSYQ-uEitvDgqtaSyAi-6">
          <mxGeometry relative="1" as="geometry" />
        </mxCell>
        <mxCell id="VwSYQ-uEitvDgqtaSyAi-4" value="&lt;div&gt;def is_square(self):&lt;/div&gt;&lt;div&gt;return self.width == self.height&lt;/div&gt;" style="rounded=1;whiteSpace=wrap;html=1;fontSize=12;glass=0;strokeWidth=1;shadow=0;" vertex="1" parent="WIyWlLk6GJQsqaUBKTNV-1">
          <mxGeometry x="145" y="415" width="150" height="60" as="geometry" />
        </mxCell>
        <mxCell id="VwSYQ-uEitvDgqtaSyAi-10" style="edgeStyle=orthogonalEdgeStyle;rounded=0;orthogonalLoop=1;jettySize=auto;html=1;entryX=0.5;entryY=0;entryDx=0;entryDy=0;" edge="1" parent="WIyWlLk6GJQsqaUBKTNV-1" source="VwSYQ-uEitvDgqtaSyAi-6" target="VwSYQ-uEitvDgqtaSyAi-8">
          <mxGeometry relative="1" as="geometry" />
        </mxCell>
        <mxCell id="VwSYQ-uEitvDgqtaSyAi-6" value="&amp;nbsp;def is_in_circle(self, radius):&lt;div&gt;return (self.width ** 2 + self.height ** 2) ** 0.5 &amp;lt;= 2 * radius&lt;br&gt;&lt;/div&gt;" style="rounded=1;whiteSpace=wrap;html=1;fontSize=12;glass=0;strokeWidth=1;shadow=0;" vertex="1" parent="WIyWlLk6GJQsqaUBKTNV-1">
          <mxGeometry x="137.5" y="555" width="165" height="80" as="geometry" />
        </mxCell>
        <mxCell id="VwSYQ-uEitvDgqtaSyAi-14" style="edgeStyle=orthogonalEdgeStyle;rounded=0;orthogonalLoop=1;jettySize=auto;html=1;" edge="1" parent="WIyWlLk6GJQsqaUBKTNV-1" source="VwSYQ-uEitvDgqtaSyAi-8">
          <mxGeometry relative="1" as="geometry">
            <mxPoint x="220" y="835" as="targetPoint" />
          </mxGeometry>
        </mxCell>
        <mxCell id="VwSYQ-uEitvDgqtaSyAi-8" value="&lt;div&gt;rec = Rectangle(5, 3)&lt;br&gt;&lt;/div&gt;&lt;div&gt;print(rec.area())&lt;br&gt;&lt;/div&gt;&lt;div&gt;print(rec.perimeter())&lt;br&gt;&lt;/div&gt;" style="rounded=1;whiteSpace=wrap;html=1;fontSize=12;glass=0;strokeWidth=1;shadow=0;" vertex="1" parent="WIyWlLk6GJQsqaUBKTNV-1">
          <mxGeometry x="143.75" y="705" width="152.5" height="70" as="geometry" />
        </mxCell>
        <mxCell id="VwSYQ-uEitvDgqtaSyAi-17" style="edgeStyle=orthogonalEdgeStyle;rounded=0;orthogonalLoop=1;jettySize=auto;html=1;entryX=0.5;entryY=0;entryDx=0;entryDy=0;" edge="1" parent="WIyWlLk6GJQsqaUBKTNV-1" source="VwSYQ-uEitvDgqtaSyAi-13" target="VwSYQ-uEitvDgqtaSyAi-16">
          <mxGeometry relative="1" as="geometry">
            <mxPoint x="221.55999999999995" y="965" as="targetPoint" />
          </mxGeometry>
        </mxCell>
        <mxCell id="VwSYQ-uEitvDgqtaSyAi-13" value="&lt;div&gt;if not rec.is_square():&lt;/div&gt;&lt;div&gt;rec.width, rec.height = (&lt;/div&gt;&lt;div&gt;max(rec.width, rec.height),&lt;/div&gt;&lt;div&gt;&lt;span style=&quot;background-color: initial;&quot;&gt;max(rec.width, rec.height)&lt;/span&gt;&lt;span style=&quot;background-color: initial;&quot;&gt;)&lt;/span&gt;&lt;/div&gt;" style="rounded=1;whiteSpace=wrap;html=1;fontSize=12;glass=0;strokeWidth=1;shadow=0;" vertex="1" parent="WIyWlLk6GJQsqaUBKTNV-1">
          <mxGeometry x="130" y="835" width="183.12" height="90" as="geometry" />
        </mxCell>
        <mxCell id="VwSYQ-uEitvDgqtaSyAi-20" style="edgeStyle=orthogonalEdgeStyle;rounded=0;orthogonalLoop=1;jettySize=auto;html=1;entryX=0.5;entryY=0;entryDx=0;entryDy=0;" edge="1" parent="WIyWlLk6GJQsqaUBKTNV-1" source="VwSYQ-uEitvDgqtaSyAi-16" target="VwSYQ-uEitvDgqtaSyAi-18">
          <mxGeometry relative="1" as="geometry">
            <mxPoint x="221.5999999999999" y="1074" as="targetPoint" />
          </mxGeometry>
        </mxCell>
        <mxCell id="VwSYQ-uEitvDgqtaSyAi-16" value="print(rec.area())&amp;nbsp;&lt;br&gt;&lt;div&gt;print(rec.perimeter())&lt;br&gt;&lt;/div&gt;" style="rounded=1;whiteSpace=wrap;html=1;fontSize=12;glass=0;strokeWidth=1;shadow=0;" vertex="1" parent="WIyWlLk6GJQsqaUBKTNV-1">
          <mxGeometry x="146.25" y="985" width="150" height="60" as="geometry" />
        </mxCell>
        <mxCell id="VwSYQ-uEitvDgqtaSyAi-18" value="&lt;div&gt;&lt;div&gt;r = 1&lt;/div&gt;&lt;div&gt;while not rec.is_in_circle(r):&lt;/div&gt;&lt;div&gt;&amp;nbsp; &amp;nbsp; r += 1&lt;/div&gt;&lt;div&gt;print(r)&amp;nbsp;&lt;/div&gt;&lt;/div&gt;" style="rounded=1;whiteSpace=wrap;html=1;fontSize=12;glass=0;strokeWidth=1;shadow=0;" vertex="1" parent="WIyWlLk6GJQsqaUBKTNV-1">
          <mxGeometry x="144.53" y="1094" width="153.44" height="66" as="geometry" />
        </mxCell>
      </root>
    </mxGraphModel>
  </diagram>
</mxfile>
